<svg width="29" height="29" viewBox="0 0 29 29" fill="none" xmlns="http://www.w3.org/2000/svg">
<path d="M14.5 0C6.49238 0 0 6.49238 0 14.5C0 22.5076 6.49238 29 14.5 29C22.5076 29 29 22.5076 29 14.5C29 6.49238 22.5076 0 14.5 0ZM21.8298 11.6544C22.0509 16.536 18.4102 21.9784 11.9649 21.9784C10.005 21.9784 8.18163 21.4032 6.64583 20.4184C8.48733 20.6359 10.3252 20.1236 11.7837 18.9817C10.266 18.9539 8.98396 17.9498 8.5405 16.5711C9.08546 16.675 9.62196 16.6448 10.1089 16.5119C8.44021 16.176 7.28746 14.6728 7.32492 13.0645C7.79375 13.3243 8.32783 13.4802 8.89696 13.4983C7.3515 12.4652 6.91408 10.4243 7.82275 8.86433C9.53375 10.9644 12.0918 12.3455 14.9761 12.4905C14.4698 10.3204 16.1168 8.22875 18.3582 8.22875C19.3551 8.22875 20.2577 8.65046 20.8909 9.32471C21.6811 9.17004 22.4255 8.88004 23.0949 8.4825C22.8351 9.29329 22.2853 9.97238 21.5688 10.4025C22.2708 10.318 22.9402 10.1319 23.5613 9.85517C23.0973 10.5536 22.51 11.165 21.8298 11.6544Z" fill="white"/>
</svg>
