<svg width="29" height="29" viewBox="0 0 29 29" fill="none" xmlns="http://www.w3.org/2000/svg">
<path d="M17.9184 7.61492C17.0266 7.57383 16.7584 7.56658 14.5 7.56658C12.2416 7.56658 11.9746 7.57504 11.0828 7.61492C8.78821 7.72004 7.72004 8.80633 7.61492 11.0828C7.57504 11.9746 7.56538 12.2416 7.56538 14.5C7.56538 16.7584 7.57504 17.0254 7.61492 17.9184C7.72004 20.1888 8.78337 21.2812 11.0828 21.3863C11.9734 21.4262 12.2416 21.4358 14.5 21.4358C16.7596 21.4358 17.0266 21.4274 17.9184 21.3863C20.213 21.2824 21.28 20.1925 21.3863 17.9184C21.4262 17.0266 21.4346 16.7584 21.4346 14.5C21.4346 12.2416 21.4262 11.9746 21.3863 11.0828C21.28 8.80754 20.2106 7.72004 17.9184 7.61492ZM14.5 18.844C12.1015 18.844 10.156 16.8997 10.156 14.5C10.156 12.1015 12.1015 10.1573 14.5 10.1573C16.8985 10.1573 18.844 12.1015 18.844 14.5C18.844 16.8985 16.8985 18.844 14.5 18.844ZM19.0155 11.0007C18.4549 11.0007 18.0005 10.5463 18.0005 9.98567C18.0005 9.425 18.4549 8.97067 19.0155 8.97067C19.5762 8.97067 20.0305 9.425 20.0305 9.98567C20.0305 10.5451 19.5762 11.0007 19.0155 11.0007ZM17.319 14.5C17.319 16.0575 16.0563 17.319 14.5 17.319C12.9437 17.319 11.681 16.0575 11.681 14.5C11.681 12.9425 12.9437 11.681 14.5 11.681C16.0563 11.681 17.319 12.9425 17.319 14.5ZM14.5 0C6.49238 0 0 6.49238 0 14.5C0 22.5076 6.49238 29 14.5 29C22.5076 29 29 22.5076 29 14.5C29 6.49238 22.5076 0 14.5 0ZM22.9076 17.9872C22.7686 21.0625 21.0564 22.7662 17.9885 22.9076C17.0858 22.9487 16.797 22.9583 14.5 22.9583C12.203 22.9583 11.9154 22.9487 11.0128 22.9076C7.93875 22.7662 6.23379 21.06 6.09242 17.9872C6.05133 17.0858 6.04167 16.797 6.04167 14.5C6.04167 12.203 6.05133 11.9154 6.09242 11.0128C6.23379 7.93875 7.93996 6.23379 11.0128 6.09363C11.9154 6.05133 12.203 6.04167 14.5 6.04167C16.797 6.04167 17.0858 6.05133 17.9885 6.09363C21.0637 6.235 22.7698 7.94479 22.9076 11.0128C22.9487 11.9154 22.9583 12.203 22.9583 14.5C22.9583 16.797 22.9487 17.0858 22.9076 17.9872Z" fill="white"/>
</svg>
