<svg width="28" height="28" viewBox="0 0 28 28" fill="none" xmlns="http://www.w3.org/2000/svg">
<path d="M14 28C21.732 28 28 21.732 28 14C28 6.26801 21.732 0 14 0C6.26801 0 0 6.26801 0 14C0 21.732 6.26801 28 14 28Z" fill="url(#paint0_linear)"/>
<path d="M13.9993 17.39C12.1299 17.39 10.6094 15.8689 10.6094 13.9996C10.6094 12.1302 12.1299 10.6101 13.9993 10.6101C15.8688 10.6101 17.3898 12.1302 17.3898 13.9996C17.3898 15.8689 15.8688 17.39 13.9993 17.39ZM13.9993 11.5225C12.6334 11.5225 11.5218 12.6336 11.5218 13.9996C11.5218 15.3656 12.6334 16.4775 13.9993 16.4775C15.3657 16.4775 16.4773 15.3656 16.4773 13.9996C16.4773 12.6336 15.3657 11.5225 13.9993 11.5225Z" fill="white"/>
<path d="M17.8757 10.6724C18.1086 10.6724 18.2974 10.4836 18.2974 10.2507C18.2974 10.0179 18.1086 9.8291 17.8757 9.8291C17.6429 9.8291 17.4541 10.0179 17.4541 10.2507C17.4541 10.4836 17.6429 10.6724 17.8757 10.6724Z" fill="white"/>
<path d="M16.9172 20.6281H11.0818C9.03553 20.6281 7.37109 18.9635 7.37109 16.9177V11.0823C7.37109 9.03566 9.03553 7.37122 11.0818 7.37122H16.9172C18.9635 7.37122 20.628 9.03566 20.628 11.0823V16.9177C20.628 18.9635 18.9635 20.6281 16.9172 20.6281ZM11.0818 8.28364C9.53901 8.28364 8.28352 9.53904 8.28352 11.0823V16.9177C8.28352 18.4602 9.53901 19.7157 11.0818 19.7157H16.9172C18.46 19.7157 19.7155 18.4602 19.7155 16.9177V11.0823C19.7155 9.53904 18.46 8.28364 16.9172 8.28364H11.0818Z" fill="white"/>
<defs>
<linearGradient id="paint0_linear" x1="14" y1="29.7693" x2="14" y2="-2.31431" gradientUnits="userSpaceOnUse">
<stop offset="0.09694" stop-color="#FFD879"/>
<stop offset="0.15387" stop-color="#FCCB76"/>
<stop offset="0.25828" stop-color="#F5AA6C"/>
<stop offset="0.39756" stop-color="#E9755E"/>
<stop offset="0.44898" stop-color="#E45F58"/>
<stop offset="0.67857" stop-color="#D22A9C"/>
<stop offset="1" stop-color="#6968DF"/>
</linearGradient>
</defs>
</svg>
